<?xml version="1.0" standalone="no"?>
<!DOCTYPE svg PUBLIC "-//W3C//DTD SVG 20010904//EN"
 "http://www.w3.org/TR/2001/REC-SVG-20010904/DTD/svg10.dtd">
<svg version="1.0" xmlns="http://www.w3.org/2000/svg"
 width="512.000000pt" height="512.000000pt" viewBox="0 0 512.000000 512.000000"
 preserveAspectRatio="xMidYMid meet">
<metadata>
Created by potrace 1.14, written by Peter Selinger 2001-2017
</metadata>
<g transform="translate(0.000000,512.000000) scale(0.100000,-0.100000)"
fill="#000000" stroke="none">
<path d="M766 4536 c-29 -39 -91 -125 -139 -191 -48 -66 -208 -286 -356 -490
-196 -270 -267 -374 -261 -385 5 -8 19 -26 32 -40 13 -14 79 -90 148 -170 68
-80 129 -150 135 -156 17 -20 96 -111 305 -354 111 -129 214 -248 229 -265 14
-16 107 -124 206 -240 99 -115 182 -212 185 -215 3 -3 32 -36 65 -75 33 -38
65 -75 70 -81 6 -6 33 -37 60 -69 28 -32 55 -63 60 -69 10 -11 174 -202 210
-245 11 -13 25 -29 30 -35 6 -6 37 -43 70 -81 33 -39 62 -72 65 -75 4 -3 33
-36 65 -75 32 -38 61 -72 64 -75 3 -3 73 -84 156 -180 82 -96 152 -177 155
-180 3 -3 45 -52 95 -110 49 -58 102 -118 117 -135 l28 -30 33 35 c17 19 47
53 66 75 18 22 55 65 81 95 51 59 362 419 439 509 25 30 51 59 56 65 6 6 80
92 165 191 85 99 187 218 228 265 41 47 84 96 96 110 59 70 202 236 206 240 3
3 30 34 60 70 30 36 57 67 60 70 3 3 45 52 95 110 49 58 92 107 95 110 3 3 32
36 65 75 84 98 108 126 120 139 6 6 50 58 100 116 49 58 94 110 100 116 5 6
30 35 55 64 25 29 50 58 55 64 6 6 95 109 198 229 l188 218 -397 547 c-218
301 -403 554 -411 562 -12 13 -221 15 -1754 16 l-1741 1 -52 -71z m1099 -156
c-4 -14 -9 -34 -11 -45 -2 -11 -13 -58 -24 -105 -12 -47 -27 -112 -35 -145 -7
-33 -27 -118 -44 -190 -16 -71 -39 -170 -51 -220 l-20 -90 -674 0 c-449 0
-672 3 -668 10 22 37 567 783 581 795 15 13 83 15 484 15 l468 0 -6 -25z
m1171 17 c3 -3 23 -81 45 -174 76 -325 138 -598 141 -618 3 -19 -6 -19 -663
-20 l-666 0 8 40 c5 22 21 96 37 165 72 306 134 576 136 585 1 6 4 15 8 20 7
11 943 13 954 2z m1156 4 c5 -1 568 -769 590 -806 4 -7 -217 -10 -664 -10
-585 0 -672 2 -679 15 -5 8 -22 78 -39 155 -17 77 -33 147 -35 155 -32 132
-45 189 -49 210 -2 14 -18 82 -35 152 -17 70 -31 129 -31 130 0 3 924 1 942
-1z m-2449 -1213 c31 -106 110 -371 176 -588 65 -217 156 -516 201 -665 44
-148 85 -283 91 -300 38 -120 179 -599 176 -601 -2 -2 -37 35 -78 84 -40 48
-90 105 -110 127 -20 22 -66 74 -101 116 -55 66 -294 344 -323 375 -5 6 -21
24 -34 40 -28 33 -131 153 -146 170 -20 22 -61 70 -115 134 -30 36 -57 67 -60
70 -3 3 -46 52 -95 110 -50 58 -92 107 -95 110 -4 3 -145 167 -315 365 -170
198 -312 362 -315 365 -3 3 -47 55 -99 115 -52 61 -106 122 -120 138 l-25 27
665 0 665 0 57 -192z m1471 170 c-4 -12 -30 -101 -59 -198 -29 -96 -110 -364
-180 -595 -270 -897 -380 -1263 -399 -1328 -5 -20 -13 -37 -16 -37 -4 0 -245
788 -316 1035 -8 28 -17 57 -19 65 -3 8 -11 38 -19 65 -8 28 -49 163 -91 300
-41 138 -87 288 -101 335 -14 47 -41 135 -59 195 -18 61 -38 127 -43 148 l-10
37 659 0 660 0 -7 -22z m1519 -11 c-15 -18 -68 -79 -118 -137 -49 -58 -92
-107 -95 -110 -3 -3 -46 -52 -95 -110 -50 -58 -92 -107 -95 -110 -3 -3 -30
-34 -60 -70 -30 -36 -57 -67 -60 -70 -3 -3 -46 -52 -95 -110 -49 -58 -92 -107
-95 -110 -3 -3 -32 -36 -65 -75 -33 -38 -72 -83 -86 -100 -15 -16 -89 -102
-164 -190 -75 -88 -147 -171 -159 -185 -12 -14 -107 -124 -211 -245 -104 -121
-192 -222 -195 -225 -3 -3 -30 -34 -60 -70 -30 -36 -57 -67 -60 -70 -3 -3 -70
-80 -149 -172 -128 -149 -166 -191 -146 -158 5 8 122 388 157 510 5 19 39 132
75 250 35 118 128 424 205 680 243 811 268 893 274 901 3 5 297 9 665 9 l661
-1 -29 -32z"/>
</g>
</svg>
